# MagicaVoxel @ Ephtracy

# group
o 

# material
mtllib manggom-0.mtl
usemtl palette

# normals
vn -1 0 0
vn 1 0 0
vn 0 0 1
vn 0 0 -1
vn 0 -1 0
vn 0 1 0

# texcoords
vt 0.0292969 0.5
vt 0.287109 0.5
vt 0.994141 0.5

# verts
v -1.1 2.1 1.1
v -1.1 2.1 -1.2
v -1.1 4 1.1
v -1.1 4 0.4
v -1.1 4 -0.5
v -1.1 4 -1.2
v -1.1 4.4 0.4
v -1.1 4.4 -0.5
v 0.5 4 0.4
v 0.5 4 -0.5
v 0.5 4.4 0.4
v 0.5 4.4 -0.5
v -0.5 4 0.4
v -0.5 4 -0.5
v -0.5 4.4 0.4
v -0.5 4.4 -0.5
v 1.1 2.1 1.1
v 1.1 2.1 -1.2
v 1.1 4 1.1
v 1.1 4 0.4
v 1.1 4 -0.5
v 1.1 4 -1.2
v 1.1 4.4 0.4
v 1.1 4.4 -0.5
v -1.1 2.1 1.1
v -1.1 4 1.1
v -0.9 2.7 1.1
v -0.9 2.9 1.1
v -0.7 2.7 1.1
v -0.7 2.9 1.1
v -0.7 3.3 1.1
v -0.5 2.9 1.1
v -0.5 3.3 1.1
v 0.5 2.9 1.1
v 0.5 3.3 1.1
v 0.7 2.7 1.1
v 0.7 2.9 1.1
v 0.7 3.3 1.1
v 0.9 2.7 1.1
v 0.9 2.9 1.1
v 1.1 2.1 1.1
v 1.1 4 1.1
v -1.1 4 0.4
v -1.1 4.4 0.4
v -1 4 0.4
v -1 4.3 0.4
v -0.6 4 0.4
v -0.6 4.3 0.4
v -0.5 4 0.4
v -0.5 4.4 0.4
v 0.5 4 0.4
v 0.5 4.4 0.4
v 0.6 4 0.4
v 0.6 4.3 0.4
v 1 4 0.4
v 1 4.3 0.4
v 1.1 4 0.4
v 1.1 4.4 0.4
v -1.1 4 -0.5
v -1.1 4.4 -0.5
v -0.5 4 -0.5
v -0.5 4.4 -0.5
v 0.5 4 -0.5
v 0.5 4.4 -0.5
v 1.1 4 -0.5
v 1.1 4.4 -0.5
v -1.1 2.1 -1.2
v -1.1 4 -1.2
v 1.1 2.1 -1.2
v 1.1 4 -1.2
v -1.1 2.1 1.1
v 1.1 2.1 1.1
v -1.1 2.1 -1.2
v 1.1 2.1 -1.2
v -1.1 4 1.1
v 1.1 4 1.1
v -1.1 4 0.4
v -1 4 0.4
v -0.6 4 0.4
v -0.5 4 0.4
v 0.5 4 0.4
v 0.6 4 0.4
v 1 4 0.4
v 1.1 4 0.4
v -1.1 4 -0.5
v -0.5 4 -0.5
v 0.5 4 -0.5
v 1.1 4 -0.5
v -1.1 4 -1.2
v 1.1 4 -1.2
v -1.1 4.4 0.4
v -0.5 4.4 0.4
v 0.5 4.4 0.4
v 1.1 4.4 0.4
v -1.1 4.4 -0.5
v -0.5 4.4 -0.5
v 0.5 4.4 -0.5
v 1.1 4.4 -0.5

# faces
f 3/2/1 2/2/1 1/2/1
f 4/2/1 2/2/1 3/2/1
f 5/2/1 2/2/1 4/2/1
f 6/2/1 2/2/1 5/2/1
f 7/2/1 5/2/1 4/2/1
f 8/2/1 5/2/1 7/2/1
f 11/2/1 10/2/1 9/2/1
f 12/2/1 10/2/1 11/2/1
f 13/2/2 14/2/2 15/2/2
f 15/2/2 14/2/2 16/2/2
f 17/2/2 18/2/2 19/2/2
f 19/2/2 18/2/2 20/2/2
f 20/2/2 18/2/2 21/2/2
f 21/2/2 18/2/2 22/2/2
f 20/2/2 21/2/2 23/2/2
f 23/2/2 21/2/2 24/2/2
f 27/2/3 26/2/3 25/2/3
f 28/2/3 26/2/3 27/2/3
f 29/2/3 27/2/3 25/2/3
f 29/1/3 28/1/3 27/1/3
f 30/2/3 26/2/3 28/2/3
f 30/1/3 28/1/3 29/1/3
f 31/2/3 26/2/3 30/2/3
f 32/2/3 30/2/3 29/2/3
f 32/3/3 31/3/3 30/3/3
f 33/2/3 26/2/3 31/2/3
f 33/3/3 31/3/3 32/3/3
f 34/2/3 32/2/3 29/2/3
f 34/2/3 33/2/3 32/2/3
f 35/2/3 26/2/3 33/2/3
f 35/2/3 33/2/3 34/2/3
f 36/2/3 29/2/3 25/2/3
f 36/2/3 34/2/3 29/2/3
f 37/3/3 35/3/3 34/3/3
f 37/2/3 34/2/3 36/2/3
f 38/2/3 26/2/3 35/2/3
f 38/3/3 35/3/3 37/3/3
f 39/1/3 37/1/3 36/1/3
f 39/2/3 36/2/3 25/2/3
f 40/2/3 38/2/3 37/2/3
f 40/1/3 37/1/3 39/1/3
f 41/2/3 39/2/3 25/2/3
f 41/2/3 40/2/3 39/2/3
f 42/2/3 26/2/3 38/2/3
f 42/2/3 40/2/3 41/2/3
f 42/2/3 38/2/3 40/2/3
f 45/2/3 44/2/3 43/2/3
f 46/2/3 44/2/3 45/2/3
f 47/1/3 46/1/3 45/1/3
f 48/2/3 44/2/3 46/2/3
f 48/1/3 46/1/3 47/1/3
f 49/2/3 48/2/3 47/2/3
f 50/2/3 44/2/3 48/2/3
f 50/2/3 48/2/3 49/2/3
f 53/2/3 52/2/3 51/2/3
f 54/2/3 52/2/3 53/2/3
f 55/1/3 54/1/3 53/1/3
f 56/2/3 52/2/3 54/2/3
f 56/1/3 54/1/3 55/1/3
f 57/2/3 56/2/3 55/2/3
f 58/2/3 52/2/3 56/2/3
f 58/2/3 56/2/3 57/2/3
f 59/2/4 60/2/4 61/2/4
f 61/2/4 60/2/4 62/2/4
f 63/2/4 64/2/4 65/2/4
f 65/2/4 64/2/4 66/2/4
f 67/2/4 68/2/4 69/2/4
f 69/2/4 68/2/4 70/2/4
f 73/2/5 72/2/5 71/2/5
f 74/2/5 72/2/5 73/2/5
f 75/2/6 76/2/6 77/2/6
f 77/2/6 76/2/6 78/2/6
f 78/2/6 76/2/6 79/2/6
f 79/2/6 76/2/6 80/2/6
f 80/2/6 76/2/6 81/2/6
f 81/2/6 76/2/6 82/2/6
f 82/2/6 76/2/6 83/2/6
f 83/2/6 76/2/6 84/2/6
f 80/2/6 81/2/6 86/2/6
f 86/2/6 81/2/6 87/2/6
f 85/2/6 86/2/6 89/2/6
f 87/2/6 88/2/6 89/2/6
f 86/2/6 87/2/6 89/2/6
f 89/2/6 88/2/6 90/2/6
f 91/2/6 92/2/6 95/2/6
f 95/2/6 92/2/6 96/2/6
f 93/2/6 94/2/6 97/2/6
f 97/2/6 94/2/6 98/2/6
