# Blender 3.4.1
# www.blender.org
mtllib untitled.mtl
o Untitled
v -2.000000 -0.000000 1.800000
v -2.000000 0.000000 -1.800000
v -2.000000 3.200000 1.800000
v -2.000000 3.200000 -1.799999
v -1.800000 -0.000000 2.000000
v -1.800000 -0.000000 1.800000
v -1.800000 0.000000 -1.800000
v -1.800000 0.000000 -2.000000
v -1.800000 3.200000 2.000000
v -1.800000 3.200000 1.800000
v -1.800000 3.200000 -1.799999
v -1.800000 3.200000 -2.000000
v -1.800000 3.300000 1.800001
v -1.800000 3.300000 -1.799999
v -1.400000 3.300000 0.900001
v -1.400000 3.300000 -0.899999
v -1.400000 4.000000 0.900001
v -1.400000 4.000000 -0.899999
v 0.500000 3.300000 0.900001
v 0.500000 3.300000 -0.899999
v 0.500000 4.000000 0.900001
v 0.500000 4.000000 -0.899999
v -0.500000 3.300000 0.900001
v -0.500000 3.300000 -0.899999
v -0.500000 4.000000 0.900001
v -0.500000 4.000000 -0.899999
v 1.400000 3.300000 0.900001
v 1.400000 3.300000 -0.899999
v 1.400000 4.000000 0.900001
v 1.400000 4.000000 -0.899999
v 1.800000 -0.000000 2.000000
v 1.800000 -0.000000 1.800000
v 1.800000 0.000000 -1.800000
v 1.800000 0.000000 -2.000000
v 1.800000 3.200000 2.000000
v 1.800000 3.200000 1.800000
v 1.800000 3.200000 -1.799999
v 1.800000 3.200000 -2.000000
v 1.800000 3.300000 1.800001
v 1.800000 3.300000 -1.799999
v 2.000000 -0.000000 1.800000
v 2.000000 0.000000 -1.800000
v 2.000000 3.200000 1.800000
v 2.000000 3.200000 -1.799999
v -1.800000 -0.000000 2.000000
v -1.800000 3.200000 2.000000
v -1.700000 1.000000 2.000000
v -1.700000 1.500000 2.000000
v -1.200000 1.000000 2.000000
v -1.200000 1.500000 2.000000
v -1.200000 2.200000 2.000000
v -0.800000 1.500000 2.000000
v -0.800000 2.200000 2.000000
v 0.800000 1.500000 2.000000
v 0.800000 2.200000 2.000000
v 1.200000 1.000000 2.000000
v 1.200000 1.500000 2.000000
v 1.200000 2.200000 2.000000
v 1.700000 1.000000 2.000000
v 1.700000 1.500000 2.000000
v 1.800000 -0.000000 2.000000
v 1.800000 3.200000 2.000000
v -2.000000 -0.000000 1.800000
v -2.000000 3.200000 1.800000
v -1.800000 -0.000000 1.800000
v -1.800000 3.200000 1.800000
v -1.800000 3.300000 1.800001
v 1.800000 -0.000000 1.800000
v 1.800000 3.200000 1.800000
v 1.800000 3.300000 1.800001
v 2.000000 -0.000000 1.800000
v 2.000000 3.200000 1.800000
v -1.400000 3.300000 0.900001
v -1.400000 4.000000 0.900001
v -1.200000 3.300000 0.900001
v -1.200000 3.800000 0.900001
v -0.700000 3.300000 0.900001
v -0.700000 3.800000 0.900001
v -0.500000 3.300000 0.900001
v -0.500000 4.000000 0.900001
v 0.500000 3.300000 0.900001
v 0.500000 4.000000 0.900001
v 0.700000 3.300000 0.900001
v 0.700000 3.800000 0.900001
v 1.200000 3.300000 0.900001
v 1.200000 3.800000 0.900001
v 1.400000 3.300000 0.900001
v 1.400000 4.000000 0.900001
v -1.400000 3.300000 -0.899999
v -1.400000 4.000000 -0.899999
v -0.500000 3.300000 -0.899999
v -0.500000 4.000000 -0.899999
v 0.500000 3.300000 -0.899999
v 0.500000 4.000000 -0.899999
v 1.400000 3.300000 -0.899999
v 1.400000 4.000000 -0.899999
v -2.000000 0.000000 -1.800000
v -2.000000 3.200000 -1.799999
v -1.800000 0.000000 -1.800000
v -1.800000 3.200000 -1.799999
v -1.800000 3.300000 -1.799999
v 1.800000 0.000000 -1.800000
v 1.800000 3.200000 -1.799999
v 1.800000 3.300000 -1.799999
v 2.000000 0.000000 -1.800000
v 2.000000 3.200000 -1.799999
v -1.800000 0.000000 -2.000000
v -1.800000 3.200000 -2.000000
v 1.800000 0.000000 -2.000000
v 1.800000 3.200000 -2.000000
v -1.800000 -0.000000 2.000000
v 1.800000 -0.000000 2.000000
v -2.000000 -0.000000 1.800000
v -1.800000 -0.000000 1.800000
v 1.800000 -0.000000 1.800000
v 2.000000 -0.000000 1.800000
v -2.000000 0.000000 -1.800000
v -1.800000 0.000000 -1.800000
v 1.800000 0.000000 -1.800000
v 2.000000 0.000000 -1.800000
v -1.800000 0.000000 -2.000000
v 1.800000 0.000000 -2.000000
v -1.800000 3.200000 2.000000
v 1.800000 3.200000 2.000000
v -2.000000 3.200000 1.800000
v -1.800000 3.200000 1.800000
v 1.800000 3.200000 1.800000
v 2.000000 3.200000 1.800000
v -2.000000 3.200000 -1.799999
v -1.800000 3.200000 -1.799999
v 1.800000 3.200000 -1.799999
v 2.000000 3.200000 -1.799999
v -1.800000 3.200000 -2.000000
v 1.800000 3.200000 -2.000000
v -1.800000 3.300000 1.800001
v 1.800000 3.300000 1.800001
v -1.400000 3.300000 0.900001
v -1.200000 3.300000 0.900001
v -0.700000 3.300000 0.900001
v -0.500000 3.300000 0.900001
v 0.500000 3.300000 0.900001
v 0.700000 3.300000 0.900001
v 1.200000 3.300000 0.900001
v 1.400000 3.300000 0.900001
v -1.400000 3.300000 -0.899999
v -0.500000 3.300000 -0.899999
v 0.500000 3.300000 -0.899999
v 1.400000 3.300000 -0.899999
v -1.800000 3.300000 -1.799999
v 1.800000 3.300000 -1.799999
v -1.400000 4.000000 0.900001
v -0.500000 4.000000 0.900001
v 0.500000 4.000000 0.900001
v 1.400000 4.000000 0.900001
v -1.400000 4.000000 -0.899999
v -0.500000 4.000000 -0.899999
v 0.500000 4.000000 -0.899999
v 1.400000 4.000000 -0.899999
vn -1.0000 -0.0000 -0.0000
vn 1.0000 -0.0000 -0.0000
vn -0.0000 -0.0000 1.0000
vn -0.0000 -0.0000 -1.0000
vn -0.0000 -1.0000 -0.0000
vn -0.0000 1.0000 -0.0000
vt 0.021484 0.500000
vt 0.021484 0.500000
vt 0.021484 0.500000
vt 0.021484 0.500000
vt 0.021484 0.500000
vt 0.021484 0.500000
vt 0.021484 0.500000
vt 0.021484 0.500000
vt 0.021484 0.500000
vt 0.021484 0.500000
vt 0.021484 0.500000
vt 0.021484 0.500000
vt 0.021484 0.500000
vt 0.021484 0.500000
vt 0.021484 0.500000
vt 0.021484 0.500000
vt 0.021484 0.500000
vt 0.021484 0.500000
vt 0.021484 0.500000
vt 0.021484 0.500000
vt 0.021484 0.500000
vt 0.021484 0.500000
vt 0.021484 0.500000
vt 0.021484 0.500000
vt 0.021484 0.500000
vt 0.021484 0.500000
vt 0.021484 0.500000
vt 0.021484 0.500000
vt 0.021484 0.500000
vt 0.021484 0.500000
vt 0.021484 0.500000
vt 0.021484 0.500000
vt 0.021484 0.500000
vt 0.021484 0.500000
vt 0.021484 0.500000
vt 0.021484 0.500000
vt 0.021484 0.500000
vt 0.021484 0.500000
vt 0.021484 0.500000
vt 0.021484 0.500000
vt 0.021484 0.500000
vt 0.021484 0.500000
vt 0.021484 0.500000
vt 0.021484 0.500000
vt 0.021484 0.500000
vt 0.021484 0.500000
vt 0.021484 0.500000
vt 0.904297 0.500000
vt 0.021484 0.500000
vt 0.904297 0.500000
vt 0.904297 0.500000
vt 0.021484 0.500000
vt 0.904297 0.500000
vt 0.021484 0.500000
vt 0.994141 0.500000
vt 0.021484 0.500000
vt 0.994141 0.500000
vt 0.994141 0.500000
vt 0.021484 0.500000
vt 0.994141 0.500000
vt 0.021484 0.500000
vt 0.994141 0.500000
vt 0.021484 0.500000
vt 0.021484 0.500000
vt 0.994141 0.500000
vt 0.904297 0.500000
vt 0.021484 0.500000
vt 0.994141 0.500000
vt 0.021484 0.500000
vt 0.904297 0.500000
vt 0.994141 0.500000
vt 0.021484 0.500000
vt 0.904297 0.500000
vt 0.021484 0.500000
vt 0.904297 0.500000
vt 0.021484 0.500000
vt 0.021484 0.500000
vt 0.021484 0.500000
vt 0.021484 0.500000
vt 0.021484 0.500000
vt 0.021484 0.500000
vt 0.021484 0.500000
vt 0.021484 0.500000
vt 0.021484 0.500000
vt 0.021484 0.500000
vt 0.021484 0.500000
vt 0.021484 0.500000
vt 0.021484 0.500000
vt 0.021484 0.500000
vt 0.021484 0.500000
vt 0.021484 0.500000
vt 0.017578 0.500000
vt 0.021484 0.500000
vt 0.017578 0.500000
vt 0.017578 0.500000
vt 0.021484 0.500000
vt 0.017578 0.500000
vt 0.021484 0.500000
vt 0.021484 0.500000
vt 0.021484 0.500000
vt 0.021484 0.500000
vt 0.021484 0.500000
vt 0.021484 0.500000
vt 0.017578 0.500000
vt 0.021484 0.500000
vt 0.017578 0.500000
vt 0.017578 0.500000
vt 0.021484 0.500000
vt 0.017578 0.500000
vt 0.021484 0.500000
vt 0.021484 0.500000
vt 0.021484 0.500000
vt 0.021484 0.500000
vt 0.021484 0.500000
vt 0.021484 0.500000
vt 0.021484 0.500000
vt 0.021484 0.500000
vt 0.021484 0.500000
vt 0.021484 0.500000
vt 0.021484 0.500000
vt 0.021484 0.500000
vt 0.021484 0.500000
vt 0.021484 0.500000
vt 0.021484 0.500000
vt 0.021484 0.500000
vt 0.021484 0.500000
vt 0.021484 0.500000
vt 0.021484 0.500000
vt 0.021484 0.500000
vt 0.021484 0.500000
vt 0.021484 0.500000
vt 0.021484 0.500000
vt 0.021484 0.500000
vt 0.021484 0.500000
vt 0.021484 0.500000
vt 0.021484 0.500000
vt 0.021484 0.500000
vt 0.021484 0.500000
vt 0.021484 0.500000
vt 0.021484 0.500000
vt 0.021484 0.500000
vt 0.021484 0.500000
vt 0.021484 0.500000
vt 0.021484 0.500000
vt 0.021484 0.500000
vt 0.021484 0.500000
vt 0.021484 0.500000
vt 0.021484 0.500000
vt 0.021484 0.500000
vt 0.021484 0.500000
vt 0.021484 0.500000
vt 0.021484 0.500000
vt 0.021484 0.500000
vt 0.021484 0.500000
vt 0.021484 0.500000
vt 0.021484 0.500000
vt 0.021484 0.500000
vt 0.021484 0.500000
vt 0.021484 0.500000
vt 0.021484 0.500000
vt 0.021484 0.500000
vt 0.021484 0.500000
vt 0.021484 0.500000
vt 0.021484 0.500000
vt 0.021484 0.500000
vt 0.021484 0.500000
vt 0.021484 0.500000
vt 0.021484 0.500000
vt 0.021484 0.500000
vt 0.021484 0.500000
vt 0.021484 0.500000
vt 0.021484 0.500000
vt 0.021484 0.500000
vt 0.021484 0.500000
vt 0.021484 0.500000
vt 0.021484 0.500000
vt 0.021484 0.500000
vt 0.021484 0.500000
vt 0.021484 0.500000
vt 0.021484 0.500000
vt 0.021484 0.500000
vt 0.021484 0.500000
s 0
usemtl palette
f 3/3/1 2/2/1 1/1/1
f 4/4/1 2/2/1 3/3/1
f 9/9/1 6/6/1 5/5/1
f 10/10/1 6/6/1 9/9/1
f 11/11/1 8/8/1 7/7/1
f 12/12/1 8/8/1 11/11/1
f 13/13/1 11/11/1 10/10/1
f 14/14/1 11/11/1 13/13/1
f 17/17/1 16/16/1 15/15/1
f 18/18/1 16/16/1 17/17/1
f 21/21/1 20/20/1 19/19/1
f 22/22/1 20/20/1 21/21/1
f 23/23/2 24/24/2 25/25/2
f 25/25/2 24/24/2 26/26/2
f 27/27/2 28/28/2 29/29/2
f 29/29/2 28/28/2 30/30/2
f 31/31/2 32/32/2 35/35/2
f 35/35/2 32/32/2 36/36/2
f 33/33/2 34/34/2 37/37/2
f 37/37/2 34/34/2 38/38/2
f 36/36/2 37/37/2 39/39/2
f 39/39/2 37/37/2 40/40/2
f 41/41/2 42/42/2 43/43/2
f 43/43/2 42/42/2 44/44/2
f 47/47/3 46/46/3 45/45/3
f 48/49/3 46/46/3 47/47/3
f 49/52/3 47/47/3 45/45/3
f 49/51/3 48/50/3 47/48/3
f 50/54/3 46/46/3 48/49/3
f 50/53/3 48/50/3 49/51/3
f 51/56/3 46/46/3 50/54/3
f 52/59/3 50/54/3 49/52/3
f 52/58/3 51/57/3 50/55/3
f 53/61/3 46/46/3 51/56/3
f 53/60/3 51/57/3 52/58/3
f 54/63/3 52/59/3 49/52/3
f 54/63/3 53/61/3 52/59/3
f 55/64/3 46/46/3 53/61/3
f 55/64/3 53/61/3 54/63/3
f 56/67/3 49/52/3 45/45/3
f 56/67/3 54/63/3 49/52/3
f 57/68/3 55/65/3 54/62/3
f 57/69/3 54/63/3 56/67/3
f 58/72/3 46/46/3 55/64/3
f 58/71/3 55/65/3 57/68/3
f 59/73/3 57/70/3 56/66/3
f 59/74/3 56/67/3 45/45/3
f 60/76/3 58/72/3 57/69/3
f 60/75/3 57/70/3 59/73/3
f 61/77/3 59/74/3 45/45/3
f 61/77/3 60/76/3 59/74/3
f 62/78/3 46/46/3 58/72/3
f 62/78/3 60/76/3 61/77/3
f 62/78/3 58/72/3 60/76/3
f 65/81/3 64/80/3 63/79/3
f 66/82/3 64/80/3 65/81/3
f 69/85/3 67/83/3 66/82/3
f 70/86/3 67/83/3 69/85/3
f 71/87/3 69/85/3 68/84/3
f 72/88/3 69/85/3 71/87/3
f 75/91/3 74/90/3 73/89/3
f 76/93/3 74/90/3 75/91/3
f 77/95/3 76/94/3 75/92/3
f 78/98/3 74/90/3 76/93/3
f 78/97/3 76/94/3 77/95/3
f 79/99/3 78/98/3 77/96/3
f 80/100/3 74/90/3 78/98/3
f 80/100/3 78/98/3 79/99/3
f 83/103/3 82/102/3 81/101/3
f 84/105/3 82/102/3 83/103/3
f 85/107/3 84/106/3 83/104/3
f 86/110/3 82/102/3 84/105/3
f 86/109/3 84/106/3 85/107/3
f 87/111/3 86/110/3 85/108/3
f 88/112/3 82/102/3 86/110/3
f 88/112/3 86/110/3 87/111/3
f 89/113/4 90/114/4 91/115/4
f 91/115/4 90/114/4 92/116/4
f 93/117/4 94/118/4 95/119/4
f 95/119/4 94/118/4 96/120/4
f 97/121/4 98/122/4 99/123/4
f 99/123/4 98/122/4 100/124/4
f 100/124/4 101/125/4 103/127/4
f 103/127/4 101/125/4 104/128/4
f 102/126/4 103/127/4 105/129/4
f 105/129/4 103/127/4 106/130/4
f 107/131/4 108/132/4 109/133/4
f 109/133/4 108/132/4 110/134/4
f 114/138/5 112/136/5 111/135/5
f 115/139/5 112/136/5 114/138/5
f 117/141/5 114/138/5 113/137/5
f 117/141/5 116/140/5 115/139/5
f 117/141/5 115/139/5 114/138/5
f 118/142/5 116/140/5 117/141/5
f 119/143/5 116/140/5 118/142/5
f 120/144/5 116/140/5 119/143/5
f 121/145/5 119/143/5 118/142/5
f 122/146/5 119/143/5 121/145/5
f 123/147/6 124/148/6 126/150/6
f 126/150/6 124/148/6 127/151/6
f 125/149/6 126/150/6 129/153/6
f 129/153/6 126/150/6 130/154/6
f 127/151/6 128/152/6 131/155/6
f 131/155/6 128/152/6 132/156/6
f 130/154/6 131/155/6 133/157/6
f 133/157/6 131/155/6 134/158/6
f 135/159/6 136/160/6 137/161/6
f 137/161/6 136/160/6 138/162/6
f 138/162/6 136/160/6 139/163/6
f 139/163/6 136/160/6 140/164/6
f 140/164/6 136/160/6 141/165/6
f 141/165/6 136/160/6 142/166/6
f 142/166/6 136/160/6 143/167/6
f 143/167/6 136/160/6 144/168/6
f 135/159/6 137/161/6 145/169/6
f 140/164/6 141/165/6 146/170/6
f 146/170/6 141/165/6 147/171/6
f 144/168/6 136/160/6 148/172/6
f 146/170/6 147/171/6 149/173/6
f 147/171/6 148/172/6 149/173/6
f 135/159/6 145/169/6 149/173/6
f 145/169/6 146/170/6 149/173/6
f 148/172/6 136/160/6 150/174/6
f 149/173/6 148/172/6 150/174/6
f 151/175/6 152/176/6 155/179/6
f 155/179/6 152/176/6 156/180/6
f 153/177/6 154/178/6 157/181/6
f 157/181/6 154/178/6 158/182/6
